<svg xmlns="http://www.w3.org/2000/svg" width="522" height="750.69" viewBox="0 0 522 750.69"><g id="svg-logo-fundo" transform="translate(-18)" opacity="0.03"><path id="Caminho_1" data-name="Caminho 1" d="M525.365,282.625,254.9,131.96l-.5-.273L18.024,0V30.5L311.219,193.8l.841.5L498.022,297.944Z" transform="translate(0.129)" fill="#2d1072"></path><path id="Caminho_2" data-name="Caminho 2" d="M158.83,48.648l-35.2,19.638L90.08,86.968l68.844,38.342Z" transform="translate(381.063 257.185)" fill="#2d1072"></path><path id="Caminho_3" data-name="Caminho 3" d="M525.863,139.162a6.369,6.369,0,0,1-.7-.477L387.471,62.137,18,268.077V422.2L525.818,139.208Z" transform="translate(0 328.494)" fill="#2d1072"></path><path id="Caminho_4" data-name="Caminho 4" d="M436.3,252.606,310.524,182.535a10.883,10.883,0,0,1-1.272-.818L18.011,19.574V50.1l234.1,130.414a14.219,14.219,0,0,1,2,1.114l140.006,77.981,145.461,80.958.365.159V310.268L436.461,252.652Z" transform="translate(0.057 103.478)" fill="#2d1072"></path></g></svg>